<svg width="64" height="56" viewBox="0 0 64 56" fill="none" xmlns="http://www.w3.org/2000/svg">
<path fill-rule="evenodd" clip-rule="evenodd" d="M28.2398 56C49.792 56 56.9784 35.2 64 19.25H26.7145L17.6499 36.75H25.0149L32.3091 24.25H39.6741L32.3799 36.75H39.7449L47.0391 24.25H54.4041C48.3649 35.1828 43.1067 49 28.2398 49C16.5425 49 7.05995 39.598 7.05995 28C7.05995 16.402 16.5425 7 28.2398 7C33.6113 7 38.5157 8.9826 42.2493 12.25H51.5917C46.5086 4.8553 37.9461 0 28.2398 0C12.6434 0 0 12.536 0 28C0 43.464 12.6434 56 28.2398 56Z" fill="white"/>
</svg>
