<svg width="93" height="81" viewBox="0 0 93 81" fill="none" xmlns="http://www.w3.org/2000/svg">
<path fill-rule="evenodd" clip-rule="evenodd" d="M41.036 81C72.354 81 82.7968 50.9143 93 27.8438H38.8195L25.6475 53.1562H36.3498L46.9491 35.0759H57.6514L47.052 53.1562H57.7543L68.3537 35.0759H79.056C70.2802 50.8895 62.6394 70.875 41.036 70.875C24.0383 70.875 10.259 57.2757 10.259 40.5C10.259 23.7243 24.0383 10.125 41.036 10.125C48.8414 10.125 55.9681 12.9927 61.3936 17.7188H74.9692C67.5829 7.02285 55.1404 0 41.036 0C18.3724 0 0 18.1325 0 40.5C0 62.8675 18.3724 81 41.036 81Z" fill="#333333"/>
</svg>
